<?xml version="1.0" encoding="UTF-8" standalone="no"?>
<!DOCTYPE svg PUBLIC "-//W3C//DTD SVG 1.1//EN" "http://www.w3.org/Graphics/SVG/1.1/DTD/svg11.dtd">
<svg width="100%" height="100%" viewBox="0 0 2048 2048" version="1.1" xmlns="http://www.w3.org/2000/svg" xmlns:xlink="http://www.w3.org/1999/xlink" xml:space="preserve" xmlns:serif="http://www.serif.com/" style="fill-rule:evenodd;clip-rule:evenodd;stroke-linejoin:round;stroke-miterlimit:2;">
    <g transform="matrix(1.84355,0,0,1.84355,-848.689,-911.801)">
        <path d="M970.408,1013.99C771.819,1009.54 730.702,796.847 746,735C751.826,742.547 837.853,801.053 837.853,801.053C844.17,711.844 882,654 882,654C939.326,686.464 961,728 961,728C987,685 1022,648 1022,648C1049,685 1122.7,794.997 1122,875C1121,990 1037.19,1018.07 1037.19,1018.07C1051.72,1183.02 1029.24,1253.76 1022,1261C1016.58,1266.42 1009.04,1273.81 1002.77,1277.18C1006.54,1279.45 1009.66,1281.11 1012,1282C1013.29,1282 1016.77,1278.58 1019,1277C1020.93,1278.81 1043.03,1298.79 1102,1322C1102.68,1319.71 1028.57,1282.19 1028.57,1282.19C1028.57,1282.19 1368.59,1334.21 1372,1332C1372.71,1329.24 1044.76,1278.56 1045,1277C1045.24,1275.44 1402.56,1271.2 1404,1269C1401.26,1266.45 1049,1269 1049,1269C1049,1269 1265.95,1241.64 1304,1235C1267.4,1238.55 1043.48,1263.53 1029,1268C1027.71,1266.71 1059.48,1247.42 1071,1239C1069.14,1237.14 1037,1254 1037,1254C1037,1254 1045.73,1221.39 1048,1157C1129,1156 1498.57,1174.37 1518,1280C1519.22,1288.09 1519.5,1305.03 1517,1320C1493,1418 1082,1496 724,1424C720.915,1420.35 700.968,1375.03 703,1373C770.907,1395.32 1110,1430 1353,1367C1354.24,1368.11 1353.92,1385.05 1354,1398C1355.67,1398 1358,1366.69 1358,1364C1358,1361.31 1355.4,1361.11 1347,1357C1381,1364 1512,1352 1512,1293C1512,1261 1489.04,1231.67 1378,1213C1390.31,1218.08 1501.19,1244.02 1503,1291C1504,1317 1462,1353 1350,1350C1348.13,1350.31 1331.75,1354.97 1323,1355C1323,1356.27 1332.45,1359.64 1335,1362C1178.88,1404.91 772.524,1399.73 714,1363C711.692,1361.08 728,1353 726,1347C725.274,1344.82 717,1341 695,1344C690.246,1344.65 670.434,1348.56 643,1350C592.213,1352.67 534.139,1328.11 530,1295C526,1263 560.666,1230.96 669,1207C662.376,1205.74 536,1221 523,1278C521.166,1286.04 520.91,1294.49 521,1302C521.253,1323 562,1374 705,1354C701.018,1356.17 695.746,1360.57 695,1364C694.254,1367.43 696.913,1380.56 706,1399C697.376,1401.77 660.217,1409 657,1409C653.783,1409 528.763,1377.28 513,1318C512.417,1311.58 512.647,1280.81 514,1275C515.148,1252.72 577.957,1160.41 999.831,1156.22C1000.59,1163.76 991.331,1240.01 984,1257C974,1250 895.878,1202.78 895,1204C928.271,1224.59 963.559,1250.89 987.568,1267.28C1023.75,1156.55 1000,1017 1000,1017C987,1012 925.172,985.138 924,882C923,794 1020.55,663.55 1018,661C1016,659 973.72,717.612 962,739C937.614,696.083 890,667 886,666C927.712,700.72 956,748 956,748C956,748 914,812.841 914,881C914,980 984.646,1016.35 982.132,1015.11C840.631,942.69 870.675,720.081 878,688C875.048,687.262 853.482,781.237 863,844C829,800 770.645,763.841 764,759C790,799 831.914,810.246 872,875C902.692,984.479 963.672,1012.62 970.408,1013.99ZM970.408,1013.99C970.605,1013.99 970.803,1014 971,1014C970.943,1014.06 970.742,1014.06 970.408,1013.99ZM787,1264C787,1267.21 901,1272.36 901,1270C901,1267.64 787,1260.79 787,1264ZM666,1333C780.44,1319.38 958.203,1290.37 984,1286C975.493,1285.58 953.981,1286.8 937,1289C920.019,1291.2 742.108,1320.54 666,1333ZM1102,1230C1110.98,1232.67 1147.85,1211.32 1167,1196C1151.9,1206.8 1111.88,1223.88 1102,1230ZM944,1366C956.033,1349.95 992.621,1296.3 1001,1285C997.212,1284.36 995.676,1286.06 988,1295C980.324,1303.94 958.493,1338.1 944,1366ZM579,1290C604.971,1289.85 903.92,1288.65 925,1288C946.08,1287.35 987.366,1283.5 986,1280C984.634,1276.5 608.897,1289.24 579,1290ZM1018,1287C1013.07,1287 1048.61,1316 1051,1316C1053.39,1316 1022.94,1287 1018,1287ZM840,1244C865.78,1250.23 970.233,1276.02 984,1278C975.322,1264.98 939.679,1264.7 840,1244ZM722.149,881.049L768,901C768,901 830.374,1032.02 978,1018C768,1105 722.149,881.049 722.149,881.049ZM1078,720C1076.29,720 1075.18,717.849 1076,715C1093.11,686.955 1142.65,654 1145,654C1178.41,706.857 1185.67,787.615 1187,805C1191.48,800.02 1273.11,743.95 1281,736C1302.29,884.193 1175.62,1021.66 1061.56,1015.53C1079.56,1003.72 1102.53,981.393 1112,965C1121.48,948.607 1140.95,901.537 1153,879C1184,821 1262,774 1263,759C1256,763 1150.93,828.851 1129,904C1133,885 1131.03,869.46 1132,866C1160.27,805.167 1150.07,698.274 1143,686C1150.85,786.342 1127,844 1127,844C1114.97,794.447 1085,739.992 1085,737C1085.45,717.358 1141.01,680.791 1141,665C1135.61,667.149 1083.76,711.091 1078,720ZM1053,1018C1085.04,1021.25 1193,1023 1260,899C1278,894 1293,887 1308,879C1244,1081 1096,1043 1053,1018Z"/>
    </g>
</svg>
