<?xml version="1.0" encoding="UTF-8" standalone="no"?>
<!DOCTYPE svg PUBLIC "-//W3C//DTD SVG 1.1//EN" "http://www.w3.org/Graphics/SVG/1.1/DTD/svg11.dtd">
<svg width="100%" height="100%" viewBox="0 0 2048 2048" version="1.1" xmlns="http://www.w3.org/2000/svg" xmlns:xlink="http://www.w3.org/1999/xlink" xml:space="preserve" xmlns:serif="http://www.serif.com/" style="fill-rule:evenodd;clip-rule:evenodd;stroke-linejoin:round;stroke-miterlimit:2;">
    <g id="Sky" transform="matrix(1.30799,0,0,1.29496,-377.02,-335.884)">
        <circle cx="1071.5" cy="1039.5" r="758.5" style="fill:rgb(159,231,239);"/>
    </g>
    <g id="Clouds" transform="matrix(1.30799,0,0,1.29496,-377.02,-335.884)">
        <clipPath id="_clip1">
            <path d="M1640.85,925.821L2040.16,925.821L2040.16,2010.07L83.73,2010.07L83.73,925.821L504.058,925.821C504.058,925.821 485.207,831.972 592.9,826.47C600.904,749.459 677.921,742.405 677.921,742.405C677.921,742.405 695.483,653.256 795.421,644.965C774.078,527.102 895.444,519.171 908.145,523.644C907.14,495.83 968.329,412.83 1053.35,412.83C1167.99,412.83 1200.99,510.195 1207.15,523.644C1460.55,475.607 1490.68,689.535 1495.65,704.193C1560.09,746.128 1542.42,802.275 1543.41,820.739C1665.42,821.272 1640.85,925.821 1640.85,925.821Z"/>
        </clipPath>
        <g clip-path="url(#_clip1)">
            <g>
                <circle cx="1071.5" cy="1039.5" r="758.5" style="fill:rgb(218,252,255);"/>
            </g>
        </g>
    </g>
    <g id="Bridge">
        <g transform="matrix(1.24951,0,0,1.23706,-267.501,-266.421)">
            <path d="M1109.2,732.5L1109.2,673L1130,603L1150,603L1160,638L1172,679L1172,1215L1109.2,1196L1109.2,1029.5C1109.2,1024.42 1105.21,1020.27 1100.2,1020.01L1100.2,1020L982,1020L982,1020.05C976.397,1020.55 972,1025.27 972,1031L972,1201L902,1205L902,662L927,602L946,602L967,669L967,730L967.014,730C967.274,734.459 970.977,738 975.5,738L1103.7,738C1106.74,738 1109.2,735.536 1109.2,732.5ZM969.042,806.282L969,806.282L969,953.5C969,958.191 972.809,962 977.5,962L1103,962C1106.31,962 1109,959.311 1109,956L1109,803.5C1109,800.633 1106.8,798.253 1104,798L977.582,798L977.582,798.04C973.048,798.163 969.364,801.755 969.042,806.282Z" style="fill:rgb(82,52,43);"/>
        </g>
        <g id="Cables" transform="matrix(1.30799,0,0,1.29496,-377.02,-335.884)">
            <clipPath id="_clip2">
                <path d="M410.568,1448.6L410.568,1305.99C395.953,1312.66 381.04,1318.87 365.825,1324.57C361.869,1326.05 357.466,1324.01 355.999,1320.01C354.532,1316.01 356.553,1311.57 360.509,1310.09C771.955,1155.96 959.947,624.355 959.947,624.355C961.035,621.284 963.916,619.234 967.145,619.234L990.846,619.234C994.734,619.234 998.003,622.182 998.442,626.085C998.442,626.085 1003.27,669.277 1021.93,703.823C1033.47,725.201 1050.32,743.563 1075.71,743.563C1101.14,743.563 1118.24,725.292 1130.07,704.013C1149.15,669.681 1154.52,626.757 1154.52,626.757C1155,622.899 1158.25,620.007 1162.1,620.007L1181.98,620.007C1185.43,620.007 1188.45,622.344 1189.36,625.71C1189.36,625.71 1245.03,833.272 1384.3,1022.78C1476.77,1148.6 1606.14,1266.58 1780.89,1309.83C1784.99,1310.84 1787.51,1315.02 1786.5,1319.16C1785.5,1323.3 1781.36,1325.84 1777.26,1324.83C1764.9,1321.77 1752.77,1318.35 1740.85,1314.58L1740.85,1448.6L1725.56,1448.6L1725.56,1309.52C1704.48,1302.24 1684.09,1293.87 1664.4,1284.57L1664.4,1448.6L1649.11,1448.6L1649.11,1277.09C1627.91,1266.35 1607.53,1254.53 1587.94,1241.79L1587.94,1398.53C1582.99,1395.04 1577.89,1391.6 1572.65,1388.21L1572.65,1231.54C1551.57,1217 1531.45,1201.4 1512.26,1184.97L1512.26,1354.59C1507.24,1352.18 1502.14,1349.81 1496.96,1347.48L1496.96,1171.53C1475.07,1151.78 1454.44,1130.97 1435.04,1109.48L1435.04,1323C1430,1321.25 1424.9,1319.54 1419.75,1317.87L1419.75,1092.11C1402.87,1072.45 1386.97,1052.32 1372.02,1031.99C1367.46,1025.77 1362.98,1019.53 1358.59,1013.29L1358.59,1300.35C1353.53,1299.09 1348.43,1297.85 1343.29,1296.65L1343.29,992.991C1343.29,992.397 1343.36,991.819 1343.49,991.263C1320.46,956.825 1300.07,922.317 1282.13,889.029L1282.13,1284.3C1277.06,1283.42 1271.97,1282.58 1266.84,1281.77L1266.84,859.809C1211.08,750.082 1182.94,658.67 1176.21,635.451C1176.21,635.451 1168.63,635.451 1168.63,635.451C1166.2,649.577 1159.12,683.288 1143.4,711.573C1130.08,735.55 1110.6,755.41 1083.37,758.569L1084.59,1267.16C1081.64,1267.14 1078.67,1267.13 1075.71,1267.13C1073.57,1267.13 1071.44,1267.14 1069.3,1267.15L1068.08,758.57C1040.84,755.403 1021.56,735.389 1008.51,711.219C993.157,682.795 986.496,648.927 984.225,634.679C984.225,634.679 972.458,634.679 972.458,634.679C965.116,654.25 936.254,727.949 884.576,821.538L884.576,1281.77C879.45,1282.58 874.353,1283.42 869.286,1284.3L869.286,848.623C851.273,879.834 830.887,912.768 808.086,946.284C808.111,946.535 808.123,946.79 808.123,947.047L808.123,1296.65C802.987,1297.85 797.89,1299.09 792.833,1300.35L792.833,968.271C773.969,994.933 753.588,1021.8 731.67,1048.32L731.67,1317.87C726.519,1319.54 721.422,1321.25 716.38,1323L716.38,1066.46C697.115,1088.88 676.732,1110.95 655.217,1132.32L655.217,1347.14C650.04,1349.46 644.942,1351.82 639.927,1354.23L639.927,1147.2C620.38,1165.85 599.941,1183.88 578.6,1201.05C578.708,1201.57 578.764,1202.1 578.764,1202.65L578.764,1388.21C573.525,1391.6 568.427,1395.04 563.474,1398.53L563.474,1212.96C543.825,1228.1 523.44,1242.49 502.312,1255.96L502.312,1448.6L487.021,1448.6L487.021,1265.46C467.265,1277.43 446.879,1288.59 425.859,1298.79L425.859,1448.6L410.568,1448.6Z"/>
            </clipPath>
            <g clip-path="url(#_clip2)">
                <g>
                    <circle cx="1071.5" cy="1039.5" r="758.5" style="fill:rgb(82,52,43);"/>
                </g>
            </g>
        </g>
        <g transform="matrix(1.24951,0,0,1.23706,-267.501,-266.421)">
            <path d="M950,1024L950,1195.16C979.316,1190.56 1009.07,1188 1039,1188C1069.3,1188 1099.38,1190.77 1128.99,1195.74L1129,612.35C1129,608.293 1132.29,605 1136.35,605L1142.65,605C1146.71,605 1150,608.293 1150,612.35L1150,1199.64C1399.25,1250.43 1609,1450 1609,1450L1399.44,1447.43C1399.44,1447.43 1279.86,1237 1038,1237C796.142,1237 651.965,1438.28 651.965,1438.28L466,1436C466,1436 676.42,1248.54 925,1199.58L925,613.75C925,608.921 928.921,605 933.75,605L941.25,605C946.079,605 950,608.921 950,613.75L950,725L950.007,725C950.272,734.428 958.009,742 967.5,742L1109.2,742L1109.2,792L963,792L963,792.035C955.739,792.549 950,798.609 950,806L950,949C950.265,958.428 958.009,966 967.5,966L1109.2,966L1109.2,1014L962,1014C956.058,1014 950.953,1018.33 950,1024Z" style="fill:rgb(234,74,58);"/>
        </g>
        <g transform="matrix(1.24951,0,0,1.23706,-267.501,-266.421)">
            <path d="M1109.21,1227.66C1086.56,1223.73 1060.26,1221.5 1037,1221.5C843.681,1221.5 636.045,1373.84 636.045,1373.84C634.477,1374.97 632.288,1374.61 631.159,1373.05C630.031,1371.48 630.388,1369.29 631.955,1368.16C631.955,1368.16 841.686,1214.5 1037,1214.5C1060.25,1214.5 1086.55,1216.7 1109.21,1220.59L1109.21,1191.36L1128.99,1191.36L1128.99,1240.17C1136.08,1241.7 1143.09,1243.37 1150.02,1245.18L1150.02,1199.07L1171.98,1199.07L1171.98,1236.65C1309.69,1279.65 1417.17,1370.25 1417.17,1370.25C1418.68,1371.45 1418.94,1373.65 1417.75,1375.17C1416.55,1376.68 1414.35,1376.94 1412.83,1375.75C1412.83,1375.75 1307.39,1286.69 1171.98,1243.91L1171.98,1251.41C1303.56,1291.75 1400,1375 1400,1375L1400,1487.57C1398.1,1459.39 1366.92,1365.82 1172.4,1287L1172.4,1427C1172.4,1435.25 1182.4,1439 1182.4,1439L1182.4,1496L1097.2,1496L1097.2,1439C1097.2,1439 1108.2,1434.15 1108.2,1426C1108.2,1417.85 1109.2,1317 1109.2,1317C1109.2,1317 1101.75,1272 1038,1272C974.249,1272 972.401,1317 972.401,1317L972.401,1426C972.401,1433.84 982.401,1439 982.401,1439L982.401,1496L892.404,1496L892.404,1440C892.404,1440 902.404,1432.36 902.404,1428L902.404,1286C701.404,1360 652,1496 652,1496L652,1375C652,1375 841.966,1230 1037,1230C1060.48,1230 1086.76,1232.1 1109.21,1235.8L1109.21,1227.66Z" style="fill:rgb(82,52,43);"/>
        </g>
    </g>
    <g id="Foliage">
        <g transform="matrix(1.30174,0,0,1.23706,-329.917,-266.421)">
            <rect x="884" y="1476" width="311" height="34" style="fill:rgb(142,184,74);"/>
        </g>
        <g transform="matrix(1.24951,0,0,1.23706,-267.501,-266.421)">
            <path d="M408,1479C408,1479 604.087,1360.05 637,1367C669.913,1373.95 689.723,1371 712,1371C734.277,1371 854.479,1467.25 900,1480C945.521,1492.75 1114.96,1503.52 1159,1487C1203.04,1470.48 1333.49,1375.37 1352,1370C1370.51,1364.63 1398.05,1364 1411,1364C1423.95,1364 1444.25,1345 1460,1345C1475.75,1345 1687,1404.67 1687,1475C1687,1545.33 1183,1618 1183,1618L769,1605L408,1479Z" style="fill:rgb(56,84,51);"/>
        </g>
        <g transform="matrix(1.24951,0,0,1.23706,-267.501,-266.421)">
            <path d="M529,1369C534.489,1370.99 589,1344 601,1352C604.359,1354.24 597.579,1359.58 599,1361C600.421,1362.42 609.944,1363 612,1363C614.056,1363 617.042,1356.1 624,1357C655,1361 652.339,1368.34 654,1370C655.661,1371.66 667,1370 667,1370C667,1370 732.368,1353.31 733,1382C752.07,1391.72 740.923,1409.92 742,1411C771.308,1403.02 762,1456 762,1456L770,1487L414,1479L392,1461C392,1461 245.006,1493.65 244,1468C242,1417 374.626,1373.08 385,1367C395.374,1360.92 435,1351 435,1351C435,1351 445.068,1345 458,1345C470.932,1345 479,1350 479,1350C479,1350 508.631,1346.3 529,1369Z" style="fill:rgb(74,106,60);"/>
        </g>
        <g transform="matrix(1.24951,0,0,1.23706,-267.501,-266.421)">
            <path d="M470,1537C438,1513 398,1484 398,1484C398,1484 358,1419.25 358,1400C358,1380.75 461.384,1336 478,1350.44C481.237,1349.11 513.081,1346.72 525,1366C537.251,1361.54 562.132,1389 567,1389C571.868,1389 575.552,1384 579,1384C582.448,1384 584.707,1389.88 587,1391C589.249,1392.1 590.699,1411.62 582.488,1429.94C584.637,1429.72 593.299,1429.52 596.876,1439.64C597.992,1439.21 600.019,1438.57 602.014,1438.58C603.9,1438.06 605.861,1437.86 607,1439C609.005,1441.01 606.814,1445.28 605.641,1448.44C605.561,1450.18 606.05,1452.05 608,1454C609.421,1455.42 612.95,1454.67 617.519,1453.08C631.809,1447.4 654.164,1432.39 658.976,1452.9C661.244,1453.39 666.827,1451.07 670,1452C670,1451.37 670.595,1447.26 675.848,1445.77C676.688,1445.33 677.714,1445.05 679,1445C680.414,1444.95 681.972,1445.13 683.583,1445.46C687.818,1446.02 693.363,1447.61 700.619,1450.83C702.345,1449.79 702.439,1444.2 707.397,1439.51C707.887,1438.47 708.414,1437.59 709,1437C712.242,1433.76 742.894,1426.52 746,1437C746.252,1437.85 746.55,1438.66 746.892,1439.43C749.424,1442.62 752.298,1446.66 759,1451C761.778,1452.8 773.843,1456.02 784.92,1460.57C787.883,1461.7 790.704,1462.95 793.249,1464.43C799.987,1468.02 805,1472.22 805,1477C805,1477.31 804.793,1477.6 804.389,1477.89C805.165,1480.78 805.41,1484.11 805,1488C805.089,1490.55 836.187,1488.43 834,1511C834.511,1513.56 840.229,1516.67 849,1516C849.626,1514.48 863.627,1506.46 876,1521C877.724,1521.21 920.05,1514.85 925,1530C934.443,1531.58 943.857,1531.66 950,1538C952.657,1541.54 951.832,1550.86 968,1560C972.848,1564.85 984.867,1561.3 989,1563C993.133,1564.7 1003.11,1571.54 1004,1575C1006.89,1573.53 1019,1568.69 1019,1588C1021.59,1588 1057.16,1553.62 1091,1581C1093.22,1579.18 1100.54,1576.77 1117,1577C1126.67,1556.92 1160,1561 1160,1561C1160,1561 1164.95,1528.32 1225,1546C1229.53,1546 1238.48,1526.69 1251,1539C1253.49,1536.51 1255.77,1520.52 1264,1513C1264,1507.8 1247,1498 1277,1483C1277,1483 1264.73,1452 1311,1452C1347,1452 1349.18,1464.45 1362,1471C1364.9,1478.36 1373,1488 1373,1488C1373,1488 1383.4,1482 1392,1482C1412,1482 1417,1499 1417,1499C1417,1499 1421.31,1494.16 1424,1493C1426.69,1491.84 1434,1492 1434,1492C1434,1492 1439.63,1486 1444,1486C1448.37,1486 1450.02,1488 1453,1488C1454.28,1488 1456.47,1478.32 1464,1479C1467.11,1479.28 1475.16,1484.77 1476,1482C1476.61,1479.98 1477.16,1472.71 1475,1469C1473.28,1466.04 1468.96,1466.75 1468,1464C1465.98,1458.22 1468.73,1454.27 1469,1454C1452.74,1444.12 1470.88,1422.97 1471,1421C1453.84,1390.91 1502.18,1378.18 1506,1382C1509.82,1385.82 1516.92,1392 1521,1392C1525.08,1392 1526.96,1377 1530,1377C1529.47,1369.68 1530.39,1368.61 1534,1365C1535.91,1363.09 1539,1355 1551,1352C1563,1349 1569.79,1355 1574,1355C1582.94,1355 1609.77,1344.8 1611,1358C1649,1349 1670.05,1348.22 1680,1351C1766,1375 1753,1460 1753,1460L1625.94,1479L1477,1627L1272,1639L904,1682L507,1547L470,1537Z" style="fill:rgb(90,123,65);"/>
        </g>
        <g transform="matrix(1.24951,0,0,1.23706,-267.501,-266.421)">
            <path d="M311,1438C326.362,1428.52 375.695,1407 389,1407C402.305,1407 447,1418 447,1440C447,1449.68 427.145,1462.14 433,1468C438.855,1473.86 459,1464 478,1471C493.307,1476.64 500,1499 523,1500C527.873,1500.21 541,1465 607,1505C617.99,1511.66 666,1512 670,1520C684.866,1549.73 711,1550 711,1550C711,1550 696,1530 697,1521C697.596,1515.64 700,1494 734,1495C774.982,1496.2 796,1536 796,1536C796,1536 838,1530 858,1550C881.022,1573.02 872.654,1611.28 880,1616C950,1661 1045.83,1612.84 1125,1603C1127.92,1600.08 1134.86,1580.28 1157,1574C1179.14,1567.72 1201,1589 1201,1589C1201,1589 1276,1577 1293,1542C1295.26,1537.34 1287,1524.63 1287,1519C1287,1513.37 1315,1482 1377,1508C1382.6,1510.35 1388.75,1516.05 1399,1519C1400.86,1520.86 1385.06,1530.88 1415,1551C1420.58,1551 1484.32,1514.96 1498,1537C1506.49,1533.29 1531.36,1539.64 1536,1535C1540.64,1530.36 1540.44,1524.56 1548,1517C1555.56,1509.44 1587,1494.44 1587,1482C1587,1469.56 1569.24,1457.4 1573,1451C1583,1434 1641,1440 1642,1430C1642.7,1422.98 1612,1412 1620,1395C1621.56,1391.69 1608.78,1388.87 1613,1385C1649,1352 1746,1384 1746,1384C1746,1384 1821,1418 1828,1465C1829.43,1474.57 1799.92,1484.54 1755,1479C1783.84,1514.65 1829.34,1533.66 1818,1545C1806.66,1556.34 1707,1535 1707,1535C1707,1535 1750.38,1593.39 1611,1582C1611,1582 1671.04,1670.56 1540,1654C1539.03,1684.6 1493,1716 1458,1711C1448.44,1720.74 1466.39,1731.69 1401,1751C1395.02,1767.42 1350.26,1787.09 1328,1784C1279.96,1833.46 948.579,1953.69 643,1737C636,1753 549,1748 537,1670C527.939,1674.58 414,1654 450,1588C446.761,1584.76 326.421,1597.24 363,1535C317.839,1547.95 259.611,1550.61 251,1542C242.389,1533.39 314,1487.12 314,1480C314,1472.88 279,1485.17 279,1472C279,1458.83 295.638,1447.48 311,1438Z" style="fill:rgb(49,63,46);"/>
        </g>
    </g>
</svg>
