<?xml version="1.0" encoding="UTF-8" standalone="no"?>
<!DOCTYPE svg PUBLIC "-//W3C//DTD SVG 1.1//EN" "http://www.w3.org/Graphics/SVG/1.1/DTD/svg11.dtd">
<svg width="100%" height="100%" viewBox="0 0 2048 2048" version="1.1" xmlns="http://www.w3.org/2000/svg" xmlns:xlink="http://www.w3.org/1999/xlink" xml:space="preserve" xmlns:serif="http://www.serif.com/" style="fill-rule:evenodd;clip-rule:evenodd;stroke-linejoin:round;stroke-miterlimit:2;">
    <g id="Sky" transform="matrix(1.23439,0,0,1.22209,-297.856,-246.407)">
        <circle cx="1071.5" cy="1039.5" r="758.5" style="fill:rgb(159,231,239);"/>
    </g>
    <g id="Clouds" transform="matrix(1.23439,0,0,1.22209,-297.856,-246.407)">
        <clipPath id="_clip1">
            <path d="M1640.85,925.821L2040.16,925.821L2040.16,2010.07L83.73,2010.07L83.73,925.821L504.058,925.821C504.058,925.821 485.207,831.972 592.9,826.47C600.904,749.459 677.921,742.405 677.921,742.405C677.921,742.405 695.483,653.256 795.421,644.965C774.078,527.102 895.444,519.171 908.145,523.644C907.14,495.83 968.329,412.83 1053.35,412.83C1167.99,412.83 1200.99,510.195 1207.15,523.644C1460.55,475.607 1490.68,689.535 1495.65,704.193C1560.09,746.128 1542.42,802.275 1543.41,820.739C1665.42,821.272 1640.85,925.821 1640.85,925.821Z"/>
        </clipPath>
        <g clip-path="url(#_clip1)">
            <g>
                <circle cx="1071.5" cy="1039.5" r="758.5" style="fill:rgb(218,252,255);"/>
            </g>
        </g>
    </g>
    <g id="Bridge">
        <g transform="matrix(1.1792,0,0,1.16745,-194.5,-180.853)">
            <path d="M1110,732.5L1110,673L1130,603L1150,603L1160,638L1172,679L1172,1215L1106,1196L1106,1029.5C1106,1024.42 1102.01,1020.27 1097,1020.01L1097,1020L982,1020L982,1020.05C976.397,1020.55 972,1025.27 972,1031L972,1201L902,1205L902,662L927,602L946,602L967,669L967,730L967.014,730C967.274,734.459 970.977,738 975.5,738L1104.5,738C1107.54,738 1110,735.536 1110,732.5ZM1104,798L969,798L969,953.5C969,958.191 972.809,962 977.5,962L1103,962C1106.31,962 1109,959.311 1109,956L1109,803.5C1109,800.633 1106.8,798.253 1104,798Z" style="fill:rgb(82,52,43);"/>
        </g>
        <g id="Cables" transform="matrix(1.23439,0,0,1.22209,-297.856,-246.407)">
            <clipPath id="_clip2">
                <path d="M403.305,1306.56C391.33,1311.69 379.151,1316.52 366.766,1321.01C365.031,1321.64 363.112,1320.74 362.483,1319.01C361.853,1317.27 362.751,1315.35 364.486,1314.72C427.71,1291.79 485.525,1260.17 538.123,1223.02C538.336,1222.82 538.575,1222.65 538.834,1222.51C600.717,1178.7 655.368,1127.22 703.105,1073.2C703.332,1072.8 703.637,1072.46 704,1072.18C883.786,868.244 965.163,628.605 965.163,628.605C965.624,627.249 966.897,626.337 968.329,626.337L990.3,626.337C991.961,626.337 993.37,627.556 993.609,629.199C993.609,629.199 998.108,673.266 1017.9,708.518C1030.68,731.282 1049.02,750.518 1075.31,750.525L1075.32,750.525C1101.63,750.525 1120.29,731.271 1133.43,708.484C1153.77,673.225 1158.95,629.149 1158.95,629.149C1159.21,627.529 1160.61,626.337 1162.25,626.337L1182.31,626.337C1183.86,626.337 1185.2,627.394 1185.56,628.895C1185.56,628.895 1209.92,729.586 1270.81,855.593C1270.85,855.687 1270.9,855.782 1270.94,855.878C1297.56,910.93 1331.14,970.8 1372.71,1029.21C1391.63,1055.8 1412.21,1082.09 1434.55,1107.48C1434.59,1107.53 1434.63,1107.57 1434.66,1107.62C1519.77,1204.35 1630.31,1288.05 1771.64,1325.78C1773.42,1326.25 1774.48,1328.09 1774,1329.87C1773.53,1331.65 1771.69,1332.71 1769.91,1332.24C1764.91,1330.9 1759.94,1329.51 1755.01,1328.06L1755.01,1381.49C1755.01,1383.34 1753.51,1384.84 1751.67,1384.84C1749.82,1384.84 1748.32,1383.34 1748.32,1381.49L1748.32,1326.05C1727.58,1319.7 1707.51,1312.36 1688.11,1304.14L1687.18,1455.07C1687.17,1456.92 1685.66,1458.41 1683.82,1458.39C1681.98,1458.38 1680.49,1456.88 1680.5,1455.03L1681.44,1301.27C1660.61,1292.16 1640.55,1282.03 1621.24,1271.03L1620.31,1435.01C1620.3,1436.85 1618.8,1438.34 1616.95,1438.33C1615.11,1438.32 1613.62,1436.82 1613.63,1434.97L1614.58,1267.18C1593.61,1254.9 1573.55,1241.6 1554.36,1227.44L1553.44,1384.38C1553.43,1386.22 1551.93,1387.71 1550.08,1387.7C1548.24,1387.69 1546.75,1386.18 1546.76,1384.34L1547.7,1222.48C1527.97,1207.56 1509.17,1191.76 1491.28,1175.26L1489.44,1344.27C1489.42,1346.12 1487.9,1347.6 1486.06,1347.58C1484.21,1347.56 1482.73,1346.05 1482.75,1344.2L1484.66,1169.08C1467.4,1152.8 1450.99,1135.89 1435.42,1118.53L1434.99,1310.81C1434.98,1312.65 1433.48,1314.15 1431.64,1314.15C1429.79,1314.14 1428.3,1312.64 1428.3,1310.8L1428.75,1111.01C1413.81,1093.97 1399.64,1076.54 1386.23,1058.89L1385.31,1281.2C1385.31,1283.05 1383.8,1284.54 1381.95,1284.53C1380.11,1284.52 1378.62,1283.02 1378.63,1281.17L1379.58,1050.03C1375.4,1044.4 1371.29,1038.75 1367.26,1033.09C1352.92,1012.94 1339.53,992.616 1327.04,972.377L1327.04,1249.66C1327.04,1251.51 1325.54,1253.01 1323.7,1253.01C1321.85,1253.01 1320.35,1251.51 1320.35,1249.66L1320.35,962.122C1320.35,961.91 1320.37,961.703 1320.41,961.503C1302,930.936 1285.64,900.661 1271.19,871.56L1270.68,1225.48C1270.67,1227.32 1269.17,1228.82 1267.33,1228.82C1265.48,1228.81 1263.99,1227.31 1263.99,1225.47L1264.52,857.941C1209.16,743.215 1183.92,649.463 1179.71,633.024L1166.96,633.024C1165,643.455 1157.05,680.928 1139.23,711.825C1125.43,735.747 1105.7,755.593 1078.68,757.118L1080.58,1192.33C1080.58,1194.18 1079.09,1195.68 1077.25,1195.69C1075.4,1195.7 1073.9,1194.21 1073.89,1192.36L1071.99,757.119C1044.95,755.606 1025.51,735.739 1012.07,711.791C994.746,680.937 987.369,643.525 985.549,633.024C985.549,633.024 970.703,633.024 970.703,633.024C965.735,647.07 937.297,724.877 882.83,824.772L882.83,1224.83C882.83,1226.67 881.332,1228.17 879.487,1228.17C877.641,1228.17 876.143,1226.67 876.143,1224.83L876.143,836.909C861.064,863.997 844.127,892.536 825.284,921.736C825.432,922.114 825.513,922.525 825.513,922.955L825.513,1247.75C825.513,1249.6 824.015,1251.1 822.169,1251.1C820.324,1251.1 818.826,1249.6 818.826,1247.75L818.826,931.655C803.722,954.646 787.445,977.988 769.971,1001.3C770.058,1001.6 770.105,1001.91 770.106,1002.23L771.061,1273.53C771.068,1275.38 769.575,1276.88 767.73,1276.89C765.884,1276.9 764.381,1275.4 764.374,1273.56L763.446,1009.93C746.511,1032.14 728.485,1054.28 709.35,1076.02L708.968,1305.08C708.964,1306.92 707.464,1308.42 705.618,1308.41C703.773,1308.41 702.277,1306.91 702.281,1305.07L702.65,1083.56C686.386,1101.71 669.34,1119.56 651.5,1136.9C651.599,1137.22 651.652,1137.56 651.65,1137.91L650.695,1343.3C650.686,1345.14 649.181,1346.63 647.336,1346.63C645.491,1346.62 643.999,1345.11 644.008,1343.27L644.938,1143.22C632.283,1155.31 619.236,1167.13 605.793,1178.63L604.841,1373.87C604.832,1375.71 603.326,1377.2 601.481,1377.19C599.636,1377.19 598.145,1375.68 598.154,1373.84L599.078,1184.32C581.312,1199.23 562.867,1213.56 543.733,1227.16L543.702,1419.71C543.702,1421.55 542.204,1423.05 540.358,1423.05C538.513,1423.05 537.015,1421.55 537.015,1419.7L537.045,1231.87C517.682,1245.35 497.625,1258.09 476.863,1269.92L476.832,1464.6C476.832,1466.45 475.333,1467.95 473.488,1467.95C471.643,1467.95 470.145,1466.45 470.145,1464.6L470.175,1273.69C450.727,1284.51 430.668,1294.54 409.993,1303.65L409.973,1404.71C409.972,1406.55 408.474,1408.05 406.628,1408.05C404.783,1408.05 403.285,1406.55 403.286,1404.7L403.305,1306.56Z"/>
            </clipPath>
            <g clip-path="url(#_clip2)">
                <g>
                    <circle cx="1071.5" cy="1039.5" r="758.5" style="fill:rgb(82,52,43);"/>
                </g>
            </g>
        </g>
        <g transform="matrix(1.1792,0,0,1.16745,-194.5,-180.853)">
            <path d="M950,1024L950,1195.16C979.316,1190.56 1009.07,1188 1039,1188C1069.3,1188 1099.38,1190.77 1128.99,1195.74L1129,612.35C1129,608.293 1132.29,605 1136.35,605L1142.65,605C1146.71,605 1150,608.293 1150,612.35L1150,1199.64C1399.25,1250.43 1609,1450 1609,1450L1399.44,1447.43C1399.44,1447.43 1279.86,1237 1038,1237C796.142,1237 651.965,1438.28 651.965,1438.28L466,1436C466,1436 676.42,1248.54 925,1199.58L925,613.75C925,608.921 928.921,605 933.75,605L941.25,605C946.079,605 950,608.921 950,613.75L950,725L950.007,725C950.272,734.428 958.009,742 967.5,742L1110,742L1110,792L963,792L963,792.035C955.739,792.549 950,798.609 950,806L950,949C950.265,958.428 958.009,966 967.5,966L1110,966L1110,1014L962,1014C956.058,1014 950.953,1018.33 950,1024Z" style="fill:rgb(234,74,58);"/>
        </g>
        <g transform="matrix(1.1792,0,0,1.16745,-194.5,-180.853)">
            <path d="M1106.01,1227.66C1083.36,1223.73 1060.26,1221.5 1037,1221.5C843.681,1221.5 636.045,1373.84 636.045,1373.84C634.477,1374.97 632.288,1374.61 631.159,1373.05C630.031,1371.48 630.388,1369.29 631.955,1368.16C631.955,1368.16 841.686,1214.5 1037,1214.5C1060.25,1214.5 1083.35,1216.7 1106.01,1220.59L1106.01,1191.36L1128.99,1191.36L1128.99,1240.17C1136.08,1241.7 1143.09,1243.37 1150.02,1245.18L1150.02,1199.07L1171.98,1199.07L1171.98,1236.65C1309.69,1279.65 1417.17,1370.25 1417.17,1370.25C1418.68,1371.45 1418.94,1373.65 1417.75,1375.17C1416.55,1376.68 1414.35,1376.94 1412.83,1375.75C1412.83,1375.75 1307.39,1286.69 1171.98,1243.91L1171.98,1251.41C1303.56,1291.75 1400,1375 1400,1375L1400,1487.57C1398.1,1459.39 1376.52,1365.82 1182,1287L1182,1427C1182,1435.25 1192,1439 1192,1439L1192,1496L1094,1496L1094,1439C1094,1439 1105,1434.15 1105,1426C1105,1417.85 1106,1317 1106,1317C1106,1317 1101.75,1272 1038,1272C974.249,1272 970,1317 970,1317L970,1426C970,1433.84 980,1439 980,1439L980,1496L882,1496L882,1440C882,1440 892,1432.36 892,1428L892,1286C691,1360 652,1496 652,1496L652,1375C652,1375 841.966,1230 1037,1230C1060.48,1230 1083.56,1232.1 1106.01,1235.8L1106.01,1227.66Z" style="fill:rgb(82,52,43);"/>
        </g>
    </g>
    <g id="Foliage">
        <g transform="matrix(1.22849,0,0,1.16745,-253.403,-180.853)">
            <rect x="884" y="1476" width="311" height="34" style="fill:rgb(142,184,74);"/>
        </g>
        <g transform="matrix(1.1792,0,0,1.16745,-194.5,-180.853)">
            <path d="M408,1479C408,1479 604.087,1360.05 637,1367C669.913,1373.95 689.723,1371 712,1371C734.277,1371 854.479,1467.25 900,1480C945.521,1492.75 1114.96,1503.52 1159,1487C1203.04,1470.48 1333.49,1375.37 1352,1370C1370.51,1364.63 1398.05,1364 1411,1364C1423.95,1364 1444.25,1345 1460,1345C1475.75,1345 1687,1404.67 1687,1475C1687,1545.33 1183,1618 1183,1618L769,1605L408,1479Z" style="fill:rgb(56,84,51);"/>
        </g>
        <g transform="matrix(1.1792,0,0,1.16745,-194.5,-180.853)">
            <path d="M529,1369C534.489,1370.99 589,1344 601,1352C604.359,1354.24 597.579,1359.58 599,1361C600.421,1362.42 609.944,1363 612,1363C614.056,1363 617.042,1356.1 624,1357C655,1361 652.339,1368.34 654,1370C655.661,1371.66 667,1370 667,1370C667,1370 732.368,1353.31 733,1382C752.07,1391.72 740.923,1409.92 742,1411C771.308,1403.02 762,1456 762,1456L770,1487L414,1479L392,1461C392,1461 245.006,1493.65 244,1468C242,1417 374.626,1373.08 385,1367C395.374,1360.92 435,1351 435,1351C435,1351 445.068,1345 458,1345C470.932,1345 479,1350 479,1350C479,1350 508.631,1346.3 529,1369Z" style="fill:rgb(74,106,60);"/>
        </g>
        <g transform="matrix(1.1792,0,0,1.16745,-194.5,-180.853)">
            <path d="M470,1537C438,1513 398,1484 398,1484L358,1400C358,1400 397.106,1357 407,1357C416.894,1357 461.384,1336 478,1350.44C481.237,1349.11 513.081,1346.72 525,1366C537.251,1361.54 562.132,1389 567,1389C571.868,1389 575.552,1384 579,1384C582.448,1384 584.707,1389.88 587,1391C589.249,1392.1 590.699,1411.62 582.488,1429.94C584.637,1429.72 593.299,1429.52 596.876,1439.64C597.992,1439.21 600.019,1438.57 602.014,1438.58C603.9,1438.06 605.861,1437.86 607,1439C609.005,1441.01 606.814,1445.28 605.641,1448.44C605.561,1450.18 606.05,1452.05 608,1454C609.421,1455.42 612.95,1454.67 617.519,1453.08C631.809,1447.4 654.164,1432.39 658.976,1452.9C661.244,1453.39 666.827,1451.07 670,1452C670,1451.37 670.595,1447.26 675.848,1445.77C676.688,1445.33 677.714,1445.05 679,1445C680.414,1444.95 681.972,1445.13 683.583,1445.46C687.818,1446.02 693.363,1447.61 700.619,1450.83C702.345,1449.79 702.439,1444.2 707.397,1439.51C707.887,1438.47 708.414,1437.59 709,1437C712.242,1433.76 742.894,1426.52 746,1437C746.252,1437.85 746.55,1438.66 746.892,1439.43C749.424,1442.62 752.298,1446.66 759,1451C761.778,1452.8 773.843,1456.02 784.92,1460.57C787.883,1461.7 790.704,1462.95 793.249,1464.43C799.987,1468.02 805,1472.22 805,1477C805,1477.31 804.793,1477.6 804.389,1477.89C805.165,1480.78 805.41,1484.11 805,1488C805.089,1490.55 836.187,1488.43 834,1511C834.511,1513.56 840.229,1516.67 849,1516C849.626,1514.48 863.627,1506.46 876,1521C877.724,1521.21 920.05,1514.85 925,1530C934.443,1531.58 943.857,1531.66 950,1538C952.657,1541.54 951.832,1550.86 968,1560C972.848,1564.85 984.867,1561.3 989,1563C993.133,1564.7 1003.11,1571.54 1004,1575C1006.89,1573.53 1019,1568.69 1019,1588C1021.59,1588 1057.16,1553.62 1091,1581C1093.22,1579.18 1100.54,1576.77 1117,1577C1126.67,1556.92 1160,1561 1160,1561C1160,1561 1164.95,1528.32 1225,1546C1229.53,1546 1238.48,1526.69 1251,1539C1253.49,1536.51 1255.77,1520.52 1264,1513C1264,1507.8 1247,1498 1277,1483C1277,1483 1264.73,1452 1311,1452C1347,1452 1349.18,1464.45 1362,1471C1364.9,1478.36 1373,1488 1373,1488C1373,1488 1383.4,1482 1392,1482C1412,1482 1417,1499 1417,1499C1417,1499 1421.31,1494.16 1424,1493C1426.69,1491.84 1434,1492 1434,1492C1434,1492 1439.63,1486 1444,1486C1448.37,1486 1450.02,1488 1453,1488C1454.28,1488 1456.47,1478.32 1464,1479C1467.11,1479.28 1475.16,1484.77 1476,1482C1476.61,1479.98 1477.16,1472.71 1475,1469C1473.28,1466.04 1468.96,1466.75 1468,1464C1465.98,1458.22 1468.73,1454.27 1469,1454C1452.74,1444.12 1470.88,1422.97 1471,1421C1453.84,1390.91 1502.18,1378.18 1506,1382C1509.82,1385.82 1516.92,1392 1521,1392C1525.08,1392 1526.96,1377 1530,1377C1529.47,1369.68 1530.39,1368.61 1534,1365C1535.91,1363.09 1539,1355 1551,1352C1563,1349 1569.79,1355 1574,1355C1582.94,1355 1609.77,1344.8 1611,1358C1649,1349 1670.05,1348.22 1680,1351C1766,1375 1753,1460 1753,1460L1625.94,1479L1477,1627L1272,1639L904,1682L507,1547L470,1537Z" style="fill:rgb(90,123,65);"/>
        </g>
        <g transform="matrix(1.1792,0,0,1.16745,-194.5,-180.853)">
            <path d="M311,1438C326.362,1428.52 375.695,1407 389,1407C402.305,1407 447,1418 447,1440C447,1449.68 427.145,1462.14 433,1468C438.855,1473.86 459,1464 478,1471C493.307,1476.64 500,1499 523,1500C527.873,1500.21 541,1465 607,1505C617.99,1511.66 666,1512 670,1520C684.866,1549.73 711,1550 711,1550C711,1550 696,1530 697,1521C697.596,1515.64 700,1494 734,1495C774.982,1496.2 796,1536 796,1536C796,1536 838,1530 858,1550C881.022,1573.02 872.654,1611.28 880,1616C950,1661 1045.83,1612.84 1125,1603C1127.92,1600.08 1134.86,1580.28 1157,1574C1179.14,1567.72 1201,1589 1201,1589C1201,1589 1276,1577 1293,1542C1295.26,1537.34 1287,1524.63 1287,1519C1287,1513.37 1315,1482 1377,1508C1382.6,1510.35 1388.75,1516.05 1399,1519C1400.86,1520.86 1385.06,1530.88 1415,1551C1420.58,1551 1484.32,1514.96 1498,1537C1506.49,1533.29 1531.36,1539.64 1536,1535C1540.64,1530.36 1540.44,1524.56 1548,1517C1555.56,1509.44 1587,1494.44 1587,1482C1587,1469.56 1569.24,1457.4 1573,1451C1583,1434 1641,1440 1642,1430C1642.7,1422.98 1612,1412 1620,1395C1621.56,1391.69 1608.78,1388.87 1613,1385C1649,1352 1746,1384 1746,1384C1746,1384 1821,1418 1828,1465C1829.43,1474.57 1799.92,1484.54 1755,1479C1783.84,1514.65 1829.34,1533.66 1818,1545C1806.66,1556.34 1707,1535 1707,1535C1707,1535 1750.38,1593.39 1611,1582C1611,1582 1671.04,1670.56 1540,1654C1539.03,1684.6 1493,1716 1458,1711C1448.44,1720.74 1466.39,1731.69 1401,1751C1395.02,1767.42 1350.26,1787.09 1328,1784C1279.96,1833.46 948.579,1953.69 643,1737C636,1753 549,1748 537,1670C527.939,1674.58 414,1654 450,1588C446.761,1584.76 326.421,1597.24 363,1535C317.839,1547.95 259.611,1550.61 251,1542C242.389,1533.39 314,1487.12 314,1480C314,1472.88 279,1485.17 279,1472C279,1458.83 295.638,1447.48 311,1438Z" style="fill:rgb(49,63,46);"/>
        </g>
    </g>
</svg>
